<?xml version="1.0" encoding="UTF-8" standalone="no"?>
<!-- Created with Inkscape (http://www.inkscape.org/) -->

<svg
   version="1.1"
   id="svg1"
   width="1024"
   height="1024"
   viewBox="0 0 1024 1024"
   xml:space="preserve"
   xmlns:xlink="http://www.w3.org/1999/xlink"
   xmlns="http://www.w3.org/2000/svg"
   xmlns:svg="http://www.w3.org/2000/svg"
   xmlns:rdf="http://www.w3.org/1999/02/22-rdf-syntax-ns#"
   xmlns:cc="http://creativecommons.org/ns#"
   xmlns:dc="http://purl.org/dc/elements/1.1/"><title
     id="title14">frigoligo's fridge</title><defs
     id="defs1"><linearGradient
       id="linearGradient6"><stop
         style="stop-color:#28a1c7;stop-opacity:1;"
         offset="0.18320611"
         id="stop6" /><stop
         style="stop-color:#0b6598;stop-opacity:1;"
         offset="1"
         id="stop7" /></linearGradient><linearGradient
       xlink:href="#linearGradient6"
       id="linearGradient7"
       x1="512"
       y1="0"
       x2="512"
       y2="1024"
       gradientUnits="userSpaceOnUse"
       spreadMethod="pad" /><clipPath
       clipPathUnits="userSpaceOnUse"
       id="clipPath22"><rect
         ry="63.390465"
         rx="63.390465"
         y="99.962036"
         x="99.962036"
         height="824.07593"
         width="824.07593"
         id="rect22"
         style="display:inline;opacity:0.2;fill:none;fill-opacity:1;stroke:currentColor;stroke-width:0.989998;stroke-linecap:butt;stroke-linejoin:miter;stroke-miterlimit:4;stroke-dasharray:none;stroke-dashoffset:0;stroke-opacity:1;marker:none;marker-start:none;marker-mid:none;marker-end:none;paint-order:normal;enable-background:new" /></clipPath></defs><g
     id="layer2"
     style="display:inline"><rect
       style="display:inline;opacity:1;fill:url(#linearGradient7);fill-opacity:1;fill-rule:evenodd;stroke:none;stroke-width:32;stroke-linecap:round;stroke-dasharray:none"
       id="rect21"
       width="1024"
       height="1024"
       x="0"
       y="0"
       rx="0"
       ry="0"
       clip-path="url(#clipPath22)" /></g><g
     id="layer1"
     style="display:inline;stroke-width:1.15329"
     transform="matrix(0.86708231,0,0,0.86708231,68.053857,68.053853)"><path
       d="m 303.07943,150.09586 c -30.43081,-6.5e-4 -55.10039,24.61863 -55.10114,54.98879 V 425.04658 H 776.02171 V 205.08465 c -7.5e-4,-30.37016 -24.67032,-54.98944 -55.10113,-54.98879 z m 31.38269,98.58122 c 11.78444,0 21.27156,9.92938 21.27156,22.26245 v 74.15949 c 0,12.3331 -9.48712,22.26246 -21.27156,22.26246 -11.78445,0 -21.27156,-9.92937 -21.27156,-22.26246 v -74.15949 c 0,-12.33307 9.48711,-22.26245 21.27156,-22.26245 z m -86.35351,212.48868 v 357.51816 c 0,30.49729 24.72293,55.22023 55.22023,55.22023 h 417.34233 c 30.49729,0 55.22022,-24.72294 55.22022,-55.22023 V 461.16576 Z m 86.35351,50.83425 c 11.78444,0 21.27156,9.92936 21.27156,22.26244 v 152.54768 c 0,12.33309 -9.48712,22.26246 -21.27156,22.26246 -11.78445,0 -21.27156,-9.92938 -21.27156,-22.26246 V 534.26245 c 0,-12.33308 9.48711,-22.26244 21.27156,-22.26244 z M 448.055,571.7635 h 220.41804 a 18.406742,18.406742 0 0 1 18.40674,18.40674 18.406742,18.406742 0 0 1 -18.40674,18.40675 H 448.055 A 18.406742,18.406742 0 0 1 429.64826,590.17024 18.406742,18.406742 0 0 1 448.055,571.7635 Z m 0.0584,67.09518 h 100.33158 a 18.406742,18.406742 0 0 1 18.40674,18.40674 18.406742,18.406742 0 0 1 -18.40674,18.40674 h -100.3316 a 18.406742,18.406742 0 0 1 -18.40674,-18.40674 18.406742,18.406742 0 0 1 18.40674,-18.40674 z m -0.52803,67.09518 h 163.63844 a 18.406742,18.406742 0 0 1 18.40674,18.40675 18.406742,18.406742 0 0 1 -18.40674,18.40674 H 447.58539 a 18.406742,18.406742 0 0 1 -18.40675,-18.40674 18.406742,18.406742 0 0 1 18.40675,-18.40675 z"
       style="display:inline;opacity:1;fill:#ffffff;stroke-width:11.5329;stroke-linejoin:round"
       id="path6" /></g><metadata
     id="metadata14"><rdf:RDF><cc:Work
         rdf:about=""><dc:title>frigoligo's fridge</dc:title><dc:creator><cc:Agent><dc:title>casimir</dc:title></cc:Agent></dc:creator></cc:Work></rdf:RDF></metadata></svg>
