<?xml version="1.0" encoding="UTF-8" standalone="no"?>
<!-- Created with Inkscape (http://www.inkscape.org/) -->

<svg
   width="1024"
   height="1023.9998"
   viewBox="0 0 270.93334 270.93329"
   version="1.1"
   id="svg1"
   inkscape:version="1.4 (e7c3feb1, 2024-10-09)"
   sodipodi:docname="frigoligo_source.svg"
   xml:space="preserve"
   inkscape:export-filename="frigoligo_cropped.svg"
   inkscape:export-xdpi="96"
   inkscape:export-ydpi="96"
   xmlns:inkscape="http://www.inkscape.org/namespaces/inkscape"
   xmlns:sodipodi="http://sodipodi.sourceforge.net/DTD/sodipodi-0.dtd"
   xmlns="http://www.w3.org/2000/svg"
   xmlns:svg="http://www.w3.org/2000/svg"><sodipodi:namedview
     id="namedview1"
     pagecolor="#ffffff"
     bordercolor="currentColor"
     borderopacity="0.25"
     inkscape:showpageshadow="2"
     inkscape:pageopacity="0.0"
     inkscape:pagecheckerboard="true"
     inkscape:deskcolor="#d1d1d1"
     inkscape:document-units="px"
     inkscape:zoom="0.49241874"
     inkscape:cx="321.88052"
     inkscape:cy="607.20679"
     inkscape:window-width="1800"
     inkscape:window-height="1097"
     inkscape:window-x="0"
     inkscape:window-y="44"
     inkscape:window-maximized="1"
     inkscape:current-layer="svg1" /><defs
     id="defs1" /><g
     id="g2"
     inkscape:label="Backgrounds"
     style="clip-rule:evenodd;fill-rule:nonzero;stroke-linecap:round;stroke-linejoin:round;stroke-miterlimit:10"
     transform="matrix(0.26458334,0,0,0.26458334,-90.752085,-64.558335)"><circle
       cx="167.74583"
       cy="274.10831"
       r="125.95041"
       id="circle5"
       style="display:none;opacity:1;fill:#28a1c7;fill-opacity:1;stroke:none;stroke-width:2.0955;stroke-linecap:butt;stroke-linejoin:miter;stroke-miterlimit:4;stroke-dasharray:none;stroke-dashoffset:0;stroke-opacity:1;marker:none;marker-start:none;marker-mid:none;marker-end:none;paint-order:normal;enable-background:new"
       transform="matrix(3.7795275,0,0,3.7795275,221,-279.99996)"
       inkscape:label="Round (Flathub)" /><rect
       ry="16.772064"
       rx="16.772064"
       y="165.08989"
       x="58.727428"
       height="218.03682"
       width="218.03682"
       id="rect3"
       style="display:inline;opacity:1;fill:#28a1c7;fill-opacity:1;stroke:none;stroke-width:2.0955;stroke-linecap:butt;stroke-linejoin:miter;stroke-miterlimit:4;stroke-dasharray:none;stroke-dashoffset:0;stroke-opacity:1;marker:none;marker-start:none;marker-mid:none;marker-end:none;paint-order:normal;enable-background:new"
       transform="matrix(3.7795275,0,0,3.7795275,221,-279.99996)"
       inkscape:label="Cropped (Flathub)" /><path
       d="M 0,229 C 0,102.527 102.527,0 229,0 h 566 c 126.473,0 229,102.527 229,229 v 566 c 0,126.473 -102.527,229 -229,229 H 229 C 102.527,1024 0,921.473 0,795 Z"
       fill="#28a1c7"
       fill-rule="nonzero"
       opacity="1"
       stroke="none"
       id="path2"
       style="clip-rule:evenodd;display:none;fill:#28a1c7;fill-opacity:1;fill-rule:nonzero;stroke-linecap:round;stroke-linejoin:round;stroke-miterlimit:10"
       inkscape:label="Cornered"
       transform="translate(343,243.99991)" /><path
       d="M 343,243.99991 H 1367 V 1267.9999 H 343 Z"
       fill="#28a1c7"
       fill-rule="nonzero"
       opacity="1"
       stroke="none"
       id="path8"
       style="clip-rule:evenodd;display:none;fill:#28a1c7;fill-opacity:1;fill-rule:nonzero;stroke-linecap:round;stroke-linejoin:round;stroke-miterlimit:10"
       inkscape:label="Full"
       transform="translate(-1.157486e-6)" /></g><g
     id="Calque-1"
     transform="matrix(0.26458334,0,0,0.26458334,6.2000002e-7,-2.38525e-5)"
     style="clip-rule:evenodd;fill-rule:nonzero;stroke-linecap:round;stroke-linejoin:round;stroke-miterlimit:10;display:inline"
     inkscape:label="Logo"
     sodipodi:insensitive="true">
<path
   d="m 640.461,826.016 v 14.273 c 0,7.879 6.395,14.274 14.274,14.274 7.879,0 34.941,0 42.82,0 7.879,0 14.273,-6.395 14.273,-14.274 v -14.273 m -399.656,0 v 14.273 c 0,7.879 6.394,14.274 14.273,14.274 7.879,0 34.941,0 42.82,0 7.879,0 14.274,-6.395 14.274,-14.274 V 826.016 M 726.102,169.437 H 297.898 c -15.758,0 -28.547,12.775 -28.547,28.547 v 585.212 c 0,15.758 12.789,28.547 28.547,28.547 h 428.204 c 15.758,0 28.547,-12.789 28.547,-28.547 V 197.984 c 0,-15.772 -12.789,-28.547 -28.547,-28.547 z M 269.351,426.359 H 754.649 M 354.992,255.078 v 99.914 m 0,142.735 v 99.914"
   fill="#ffffff"
   fill-rule="nonzero"
   opacity="1"
   stroke="#000000"
   stroke-linecap="round"
   stroke-linejoin="miter"
   stroke-width="28.5469"
   id="path3"
   style="display:inline" />
<g
   opacity="1"
   id="g7"
   style="display:inline">
<path
   d="M 415.382,608.618 C 415.382,555.266 458.648,512 512,512 c 53.352,0 96.618,43.266 96.618,96.618 0,53.352 -43.266,96.618 -96.618,96.618 -53.352,0 -96.618,-43.266 -96.618,-96.618 z"
   fill="#28a1c7"
   fill-rule="nonzero"
   opacity="1"
   stroke="#010101"
   stroke-linecap="butt"
   stroke-linejoin="miter"
   stroke-opacity="0"
   stroke-width="28.5469"
   id="path4" />
<path
   d="m 569.013,570.921 -19.316,-19.316 c -4.167,-4.167 -10.943,-4.167 -15.11,0 l -29.83,29.831 c -4.167,4.166 -4.167,10.943 0,15.109 l 19.315,19.316 c 4.167,4.167 10.943,4.167 15.11,0 l 29.831,-29.83 c 4.167,-4.167 4.167,-10.904 0,-15.11 z m -31.895,32.751 c -2.453,2.453 -6.425,2.453 -8.879,0 L 516.907,592.34 c -2.454,-2.454 -2.454,-6.426 0,-8.879 l 19.666,-19.667 c 2.454,-2.453 6.426,-2.453 8.879,0 l 11.333,11.333 c 2.453,2.453 2.453,6.425 0,8.879 z m -17.836,16.979 -19.315,-19.316 c -4.167,-4.166 -10.943,-4.166 -15.11,0 l -29.831,29.831 c -4.167,4.167 -4.167,10.943 0,15.11 l 19.316,19.316 c 4.167,4.166 10.943,4.166 15.11,0 l 29.83,-29.831 c 4.167,-4.167 4.167,-10.943 0,-15.11 z m -31.894,32.751 c -2.453,2.454 -6.426,2.454 -8.879,0 L 467.215,642.07 c -2.453,-2.453 -2.453,-6.426 0,-8.879 l 19.667,-19.666 c 2.453,-2.454 6.425,-2.454 8.879,0 l 11.332,11.332 c 2.454,2.454 2.454,6.426 0,8.879 z"
   fill="#ffffff"
   fill-rule="nonzero"
   opacity="1"
   stroke="#010101"
   stroke-linecap="butt"
   stroke-linejoin="miter"
   stroke-opacity="0"
   stroke-width="28.5469"
   id="path5" />
<path
   d="m 534.899,586.654 -0.935,-0.935 c -2.999,-2.998 -7.906,-2.998 -10.943,0 l -33.958,33.959 c -2.999,2.998 -2.999,7.905 0,10.943 l 0.934,0.934 c 2.999,2.999 7.906,2.999 10.943,0 l 33.959,-33.958 c 3.037,-3.038 3.037,-7.944 0,-10.943 z"
   fill="#28a1c7"
   fill-rule="nonzero"
   opacity="1"
   stroke="#010101"
   stroke-linecap="butt"
   stroke-linejoin="miter"
   stroke-opacity="0"
   stroke-width="28.5469"
   id="path6"
   style="display:inline" />
<path
   d="m 499.266,629.842 c -2.064,2.064 -5.452,2.064 -7.555,0 l -0.935,-0.935 c -2.064,-2.064 -2.064,-5.452 0,-7.555 l 33.958,-33.958 c 2.064,-2.064 5.452,-2.064 7.555,0 l 0.935,0.934 c 2.064,2.064 2.064,5.453 0,7.555 z"
   fill="#ffffff"
   fill-rule="nonzero"
   opacity="1"
   stroke="#010101"
   stroke-linecap="butt"
   stroke-linejoin="miter"
   stroke-opacity="0"
   stroke-width="28.5469"
   id="path7"
   style="display:inline" />
</g>
</g><g
     inkscape:label="Template Flathub"
     inkscape:groupmode="layer"
     id="layer1"
     transform="translate(-32.279167,-138.64166)"
     sodipodi:insensitive="true"
     style="display:none"><circle
       cx="167.74583"
       cy="274.10831"
       r="125.95041"
       id="circle2892"
       style="display:inline;opacity:0.2;fill:none;fill-opacity:1;stroke:currentColor;stroke-width:2.0955;stroke-linecap:butt;stroke-linejoin:miter;stroke-miterlimit:4;stroke-dasharray:none;stroke-dashoffset:0;stroke-opacity:1;marker:none;marker-start:none;marker-mid:none;marker-end:none;paint-order:normal;enable-background:new" /><rect
       ry="16.772064"
       rx="16.772064"
       y="165.08989"
       x="58.727428"
       height="218.03682"
       width="218.03682"
       id="rect2896"
       style="display:inline;opacity:0.2;fill:none;fill-opacity:1;stroke:currentColor;stroke-width:2.0955;stroke-linecap:butt;stroke-linejoin:miter;stroke-miterlimit:4;stroke-dasharray:none;stroke-dashoffset:0;stroke-opacity:1;marker:none;marker-start:none;marker-mid:none;marker-end:none;paint-order:normal;enable-background:new" /></g></svg>
