<?xml version="1.0" encoding="UTF-8" standalone="no"?>
<!DOCTYPE svg PUBLIC "-//W3C//DTD SVG 1.1//EN" "http://www.w3.org/Graphics/SVG/1.1/DTD/svg11.dtd">
<!-- Created with Vectornator (http://vectornator.io/) -->
<svg height="100%" stroke-miterlimit="10" style="fill-rule:nonzero;clip-rule:evenodd;stroke-linecap:round;stroke-linejoin:round;" version="1.1" viewBox="0 0 1024 1024" width="100%" xml:space="preserve" xmlns="http://www.w3.org/2000/svg" xmlns:xlink="http://www.w3.org/1999/xlink">
<defs/>
<path d="M0 0L1024 0L1024 1024L0 1024L0 0Z" fill="#28a1c7" fill-rule="nonzero" opacity="1" stroke="none"/>
<g id="Calque-2" visibility="hidden">
<path d="M4.74898e-14 229C2.84217e-14 102.527 102.527 1.13687e-13 229 1.00975e-13L795 6.95555e-14C921.473 5.68434e-14 1024 102.527 1024 229L1024 795C1024 921.473 921.473 1024 795 1024L229 1024C102.527 1024 8.52651e-14 921.473 9.46188e-14 795L4.74898e-14 229Z" fill="#28a1c7" fill-rule="nonzero" opacity="1" stroke="none"/>
</g>
<g id="Calque-1">
<path d="M640.461 826.016L640.461 840.289C640.461 848.168 646.856 854.563 654.735 854.563C662.614 854.563 689.676 854.563 697.555 854.563C705.434 854.563 711.828 848.168 711.828 840.289L711.828 826.016M312.172 826.016L312.172 840.289C312.172 848.168 318.566 854.563 326.445 854.563C334.324 854.563 361.386 854.563 369.265 854.563C377.144 854.563 383.539 848.168 383.539 840.289L383.539 826.016M726.102 169.437L297.898 169.437C282.14 169.437 269.351 182.212 269.351 197.984L269.351 783.196C269.351 798.954 282.14 811.743 297.898 811.743L726.102 811.743C741.86 811.743 754.649 798.954 754.649 783.196L754.649 197.984C754.649 182.212 741.86 169.437 726.102 169.437ZM269.351 426.359L754.649 426.359M354.992 255.078L354.992 354.992M354.992 497.727L354.992 597.641" fill="#ffffff" fill-rule="nonzero" opacity="1" stroke="#000000" stroke-linecap="round" stroke-linejoin="miter" stroke-width="28.5469"/>
<g opacity="1">
<path d="M415.382 608.618C415.382 555.266 458.648 512 512 512C565.352 512 608.618 555.266 608.618 608.618C608.618 661.97 565.352 705.236 512 705.236C458.648 705.236 415.382 661.97 415.382 608.618Z" fill="#28a1c7" fill-rule="nonzero" opacity="1" stroke="#010101" stroke-linecap="butt" stroke-linejoin="miter" stroke-opacity="0" stroke-width="28.5469"/>
<path d="M569.013 570.921L549.697 551.605C545.53 547.438 538.754 547.438 534.587 551.605L504.757 581.436C500.59 585.602 500.59 592.379 504.757 596.545L524.072 615.861C528.239 620.028 535.015 620.028 539.182 615.861L569.013 586.031C573.18 581.864 573.18 575.127 569.013 570.921ZM537.118 603.672C534.665 606.125 530.693 606.125 528.239 603.672L516.907 592.34C514.453 589.886 514.453 585.914 516.907 583.461L536.573 563.794C539.027 561.341 542.999 561.341 545.452 563.794L556.785 575.127C559.238 577.58 559.238 581.552 556.785 584.006L537.118 603.672ZM519.282 620.651L499.967 601.335C495.8 597.169 489.024 597.169 484.857 601.335L455.026 631.166C450.859 635.333 450.859 642.109 455.026 646.276L474.342 665.592C478.509 669.758 485.285 669.758 489.452 665.592L519.282 635.761C523.449 631.594 523.449 624.818 519.282 620.651ZM487.388 653.402C484.935 655.856 480.962 655.856 478.509 653.402L467.215 642.07C464.762 639.617 464.762 635.644 467.215 633.191L486.882 613.525C489.335 611.071 493.307 611.071 495.761 613.525L507.093 624.857C509.547 627.311 509.547 631.283 507.093 633.736L487.388 653.402Z" fill="#ffffff" fill-rule="nonzero" opacity="1" stroke="#010101" stroke-linecap="butt" stroke-linejoin="miter" stroke-opacity="0" stroke-width="28.5469"/>
<path d="M534.899 586.654L533.964 585.719C530.965 582.721 526.058 582.721 523.021 585.719L489.063 619.678C486.064 622.676 486.064 627.583 489.063 630.621L489.997 631.555C492.996 634.554 497.903 634.554 500.94 631.555L534.899 597.597C537.936 594.559 537.936 589.653 534.899 586.654Z" fill="#28a1c7" fill-rule="nonzero" opacity="1" stroke="#010101" stroke-linecap="butt" stroke-linejoin="miter" stroke-opacity="0" stroke-width="28.5469"/>
<path d="M499.266 629.842C497.202 631.906 493.814 631.906 491.711 629.842L490.776 628.907C488.712 626.843 488.712 623.455 490.776 621.352L524.734 587.394C526.798 585.33 530.186 585.33 532.289 587.394L533.224 588.328C535.288 590.392 535.288 593.781 533.224 595.883L499.266 629.842Z" fill="#ffffff" fill-rule="nonzero" opacity="1" stroke="#010101" stroke-linecap="butt" stroke-linejoin="miter" stroke-opacity="0" stroke-width="28.5469"/>
</g>
</g>
</svg>
